# xmcd CD Database Entry
#
# Track frame offsets:
# 150
# 40057
# 111895
# 125407
# 142447
# 157190
# 179267
# 193105
# 206832
# 218007
# 236547
# 262732
#
# Disc length: 3627 seconds
#
# Revision: 2
# Processed by: cddbd v1.4PL0 Copyright (c) Steve Scherf et al.
# Submitted via: tcd 2.0b
#
DISCID=b50e290c
DTITLE=George Gershwin - George Gershwin plays Gershwin
DYEAR=1900
DGENRE=
TTITLE0=Rhapsody in Blue
TTITLE1=An American in Paris
TTITLE2=It ain't necessarily so
TTITLE3=The Buzzard song
TTITLE4=Scene: Summertime-Crapgame-A woman is a sometime thing
TTITLE5=Bess, you is my woman now
TTITLE6=I got plenty o'nuttin
TTITLE7=Where is my Bess?
TTITLE8=Summertime
TTITLE9=My man's gone now
TTITLE10=Concerto in F - third movement
TTITLE11=I got rhythm - Of thee I sing
EXTD=
EXTT0=
EXTT1=
EXTT2=
EXTT3=
EXTT4=
EXTT5=
EXTT6=
EXTT7=
EXTT8=
EXTT9=
EXTT10=
EXTT11=
PLAYORDER=
